<?xml version="1.0" encoding="utf-8"?>
<!-- Generator: Adobe Illustrator 19.0.0, SVG Export Plug-In . SVG Version: 6.00 Build 0)  -->
<svg version="1.1" id="Layer_1" xmlns="http://www.w3.org/2000/svg" xmlns:xlink="http://www.w3.org/1999/xlink" x="0px" y="0px"
	 viewBox="0 0 20 20" style="enable-background:new 0 0 20 20;" xml:space="preserve">
<style type="text/css">
	.st0{fill:#010101;}
</style>
<g id="XMLID_4_">
	<path class="st0" d="M11.7,19.4c0.3,0.2,0.6,0.2,0.9,0.2c0.3,0,0.7-0.1,1-0.3l4.1-2.6c0.7-0.4,1.1-1.2,1.1-2V5.3
		c0-0.8-0.4-1.6-1.1-2l-4.1-2.6c-0.4-0.2-0.8-0.3-1.2-0.3S11.5,0.7,11.2,1c-0.3,0.3-0.4,0.7-0.4,1.2v0.6l-5.6,0
		C4.5,2.8,3.9,3,3.5,3.5S2.8,4.5,2.8,5.2v1.6v0c0,0.3,0.2,0.6,0.4,0.7c0.2,0.1,0.6,0.1,0.8,0c0.2-0.1,0.4-0.4,0.4-0.7V5.2
		c0-0.2,0.1-0.4,0.2-0.6C4.8,4.5,5,4.4,5.2,4.4h5.6v11.3H5.2c-0.2,0-0.4-0.1-0.6-0.2c-0.2-0.2-0.2-0.4-0.2-0.6v-1.6
		c0-0.3-0.2-0.6-0.4-0.7c-0.2-0.1-0.6-0.1-0.8,0c-0.2,0.1-0.4,0.4-0.4,0.7v1.6v0c0,0.6,0.3,1.3,0.7,1.7c0.5,0.5,1.1,0.7,1.7,0.7h5.6
		v0.6v0c0,0.3,0.1,0.6,0.3,0.9C11.2,19,11.5,19.3,11.7,19.4L11.7,19.4z M12.4,2.2c0-0.1,0-0.1,0.1-0.2c0,0,0.1,0,0.1,0
		c0,0,0.1,0,0.1,0l4.1,2.6c0.2,0.1,0.4,0.4,0.4,0.7v9.5c0,0.3-0.1,0.5-0.4,0.7L12.7,18c-0.1,0-0.1,0-0.2,0c-0.1,0-0.1-0.1-0.1-0.2
		L12.4,2.2z"/>
	<path id="XMLID_1_" class="st0" d="M6.5,12.3c0.1,0,0.2,0.1,0.3,0.1c0.2,0,0.4-0.1,0.6-0.2L9,10.6c0.2-0.2,0.2-0.4,0.2-0.6
		c0-0.2-0.1-0.4-0.2-0.6L7.4,7.8C7.2,7.7,7,7.6,6.8,7.6c-0.2,0-0.4,0.1-0.6,0.2C6.1,8,6,8.2,6,8.4v0.8l-4,0c-0.3,0-0.6,0.2-0.7,0.4
		c-0.1,0.2-0.1,0.6,0,0.8c0.1,0.2,0.4,0.4,0.7,0.4h4v0.8c0,0.2,0,0.3,0.1,0.4C6.2,12.2,6.3,12.3,6.5,12.3L6.5,12.3z"/>
</g>
</svg>
