<svg xmlns="http://www.w3.org/2000/svg" xmlns:xlink="http://www.w3.org/1999/xlink" width="182" height="30" viewBox="0 0 182 30">
  <defs>
    <clipPath id="clip-my-booking-sprite">
      <rect width="182" height="30"/>
    </clipPath>
  </defs>
  <g id="my-booking-sprite" clip-path="url(#clip-my-booking-sprite)">
    <rect width="182" height="30" fill="#fff"/>
    <g id="failed-booking" transform="translate(-201.651 -240.715)">
      <path id="Path_1" data-name="Path 1" d="M269.141,264.367,256.91,242.644a3.717,3.717,0,0,0-6.518,0l-12.23,21.723a3.9,3.9,0,0,0,0,3.858,3.708,3.708,0,0,0,3.259,1.93h24.462a3.71,3.71,0,0,0,3.259-1.93A3.9,3.9,0,0,0,269.141,264.367Zm-3.551,2.28a1.589,1.589,0,0,1-1.408.887H243.119a1.587,1.587,0,0,1-1.407-.887,1.89,1.89,0,0,1,0-1.773l10.532-19.892a1.561,1.561,0,0,1,2.815,0l10.532,19.892A1.89,1.89,0,0,1,265.591,266.646Z"/>
      <g id="Group_5" data-name="Group 5" transform="translate(252.426 252.742)">
        <g id="Group_2" data-name="Group 2" transform="translate(0.307)">
          <g id="Group_1" data-name="Group 1">
            <rect id="Rectangle_1" data-name="Rectangle 1" width="1.838" height="7.95"/>
          </g>
        </g>
        <g id="Group_4" data-name="Group 4" transform="translate(0 9.54)">
          <g id="Group_3" data-name="Group 3">
            <path id="Path_2" data-name="Path 2" d="M250.151,257.926a1.071,1.071,0,1,0,1.225,1.06A1.153,1.153,0,0,0,250.151,257.926Z" transform="translate(-248.926 -257.926)"/>
          </g>
        </g>
      </g>
    </g>
    <g id="complete-booking" transform="translate(-125.157 -242.19)">
      <path id="Path_3" data-name="Path 3" d="M227.871,247.884h-9.143v-3.52a1.16,1.16,0,0,0-1.142-1.174h-6.858a1.162,1.162,0,0,0-1.142,1.174v3.52h-9.143a2.324,2.324,0,0,0-2.286,2.346V269a2.324,2.324,0,0,0,2.286,2.346h27.428A2.324,2.324,0,0,0,230.157,269V250.23A2.324,2.324,0,0,0,227.871,247.884Zm-15.928-2.573h4.187v2.573h-4.187Zm15.738,23.644H200.49V250.414h27.19Z" transform="translate(0)"/>
      <g id="Group_7" data-name="Group 7" transform="translate(208.967 256.173)">
        <path id="Path_4" data-name="Path 4" d="M215.847,253.768a.621.621,0,0,1-.188.455l-4.848,4.848-.911.911a.645.645,0,0,1-.91,0l-.911-.911-2.424-2.424a.645.645,0,0,1,0-.91l.911-.911a.645.645,0,0,1,.91,0l1.969,1.975,4.393-4.4a.647.647,0,0,1,.91,0l.911.91A.623.623,0,0,1,215.847,253.768Z" transform="translate(-205.467 -252.215)"/>
      </g>
    </g>
    <g id="cancel-booking" transform="translate(-152.666 -242.566)">
      <g id="Group_10" data-name="Group 10" transform="translate(285.908 253.016)">
        <g id="Group_9" data-name="Group 9">
          <rect id="Rectangle_2" data-name="Rectangle 2" width="0.476" height="0.731"/>
        </g>
      </g>
      <g id="Group_12" data-name="Group 12" transform="translate(285.908 254.909)">
        <g id="Group_11" data-name="Group 11">
          <rect id="Rectangle_3" data-name="Rectangle 3" width="0.476" height="0.731"/>
        </g>
      </g>
      <g id="Group_14" data-name="Group 14" transform="translate(285.908 256.801)">
        <g id="Group_13" data-name="Group 13">
          <rect id="Rectangle_4" data-name="Rectangle 4" width="0.476" height="0.731"/>
        </g>
      </g>
      <g id="Group_16" data-name="Group 16" transform="translate(285.908 258.693)">
        <g id="Group_15" data-name="Group 15">
          <rect id="Rectangle_5" data-name="Rectangle 5" width="0.476" height="0.731"/>
        </g>
      </g>
      <g id="Group_18" data-name="Group 18" transform="translate(285.908 260.585)">
        <g id="Group_17" data-name="Group 17">
          <rect id="Rectangle_6" data-name="Rectangle 6" width="0.476" height="0.731"/>
        </g>
      </g>
      <g id="Group_20" data-name="Group 20" transform="translate(277.61 253.016)">
        <g id="Group_19" data-name="Group 19">
          <rect id="Rectangle_7" data-name="Rectangle 7" width="6.182" height="0.731"/>
        </g>
      </g>
      <g id="Group_22" data-name="Group 22" transform="translate(277.61 260.112)">
        <g id="Group_21" data-name="Group 21">
          <rect id="Rectangle_8" data-name="Rectangle 8" width="6.182" height="0.731"/>
        </g>
      </g>
      <g id="Group_24" data-name="Group 24" transform="translate(287.934 253.016)">
        <g id="Group_23" data-name="Group 23">
          <rect id="Rectangle_9" data-name="Rectangle 9" width="3.091" height="0.731"/>
        </g>
      </g>
      <g id="Group_26" data-name="Group 26" transform="translate(287.934 260.112)">
        <g id="Group_25" data-name="Group 25">
          <rect id="Rectangle_10" data-name="Rectangle 10" width="3.091" height="0.731"/>
        </g>
      </g>
      <path id="Path_5" data-name="Path 5" d="M299.927,247.566l-31.261,17.853.739,1.347,31.261-17.853Z" transform="translate(0)"/>
      <path id="Path_6" data-name="Path 6" d="M271.962,263.87h25.373v-1.944a4.483,4.483,0,0,1-3.6-4.226c-.25-2.63,1.36-5,3.6-5.293v-1.945H294.17l-22.208,13.373Z" fill="none"/>
      <path id="Path_7" data-name="Path 7" d="M271.962,250.462V251.8a3.135,3.135,0,0,1,2.6,2.9,3.533,3.533,0,0,1-.653,2.449l11.709-6.687Z" transform="translate(0 1.463)" fill="none"/>
      <path id="Path_8" data-name="Path 8" d="M298.435,248.853h-.917l-3.735,2.153h3.039v1.788a4.311,4.311,0,0,0-3.455,4.864,4.182,4.182,0,0,0,3.455,3.883v1.786H272.464v-.032l-2.042,1.176v.521a.482.482,0,0,0,.475.488h27.538a.483.483,0,0,0,.476-.488v-3.912a.483.483,0,0,0-.476-.49,3.424,3.424,0,0,1,0-6.845.483.483,0,0,0,.476-.488v-3.912A.483.483,0,0,0,298.435,248.853Z" transform="translate(0 0)"/>
      <path id="Path_9" data-name="Path 9" d="M274.567,254.7a3.135,3.135,0,0,0-2.6-2.9v-1.336h13.661l2.817-1.609H270.78a.362.362,0,0,0-.358.366v2.924a.362.362,0,0,0,.358.365,2.559,2.559,0,0,1,0,5.116.362.362,0,0,0-.358.366v1.153l3.492-1.994A3.533,3.533,0,0,0,274.567,254.7Z"/>
    </g>
    <g id="upcoming-booking" transform="translate(-164.324 -242.19)">
      <rect id="Rectangle_11" data-name="Rectangle 11" width="28.243" height="14.485" transform="translate(167.147 254.994)" fill="none"/>
      <path id="Path_10" data-name="Path 10" d="M195.038,247.884h-9.143v-3.52a1.16,1.16,0,0,0-1.143-1.174h-6.857a1.162,1.162,0,0,0-1.143,1.174v3.52h-9.143a2.323,2.323,0,0,0-2.285,2.346V269a2.323,2.323,0,0,0,2.285,2.346h27.429A2.324,2.324,0,0,0,197.324,269V250.23A2.324,2.324,0,0,0,195.038,247.884Zm-15.928-2.573H183.3v2.573H179.11Zm15.738,23.644h-27.19V250.414h27.19Z" transform="translate(0)"/>
      <rect id="Rectangle_12" data-name="Rectangle 12" width="22.25" height="1.5" rx="0.75" transform="translate(170 256.6)"/>
      <rect id="Rectangle_13" data-name="Rectangle 13" width="22.25" height="1.5" rx="0.75" transform="translate(170 260.601)"/>
    </g>
  </g>
</svg>
