<svg xmlns="http://www.w3.org/2000/svg" width="23.997" height="24.003" viewBox="0 0 23.997 24.003">
  <g id="icon-info" transform="translate(0 -0.032)">
    <path id="Path_254" data-name="Path 254" d="M12,496a12,12,0,1,0,12,12A12.014,12.014,0,0,0,12,496Zm.78,19.122c-.57.095-1.7.332-2.28.38a1.4,1.4,0,0,1-1.228-.639,1.5,1.5,0,0,1-.181-1.374l2.268-6.238H9a2.82,2.82,0,0,1,2.22-2.622,8.685,8.685,0,0,1,2.28-.378,1.812,1.812,0,0,1,1.228.639,1.5,1.5,0,0,1,.181,1.374L12.64,512.5H15a2.656,2.656,0,0,1-2.218,2.621ZM13.5,503.5A1.5,1.5,0,1,1,15,502a1.5,1.5,0,0,1-1.5,1.5Z" transform="translate(0 -496.001)" fill="#fff"/>
    <path id="Path_255" data-name="Path 255" d="M12,496a12,12,0,1,0,12,12A12.014,12.014,0,0,0,12,496Zm.78,19.122c-.57.095-1.7.332-2.28.38a1.4,1.4,0,0,1-1.228-.639,1.5,1.5,0,0,1-.181-1.374l2.268-6.238H9a2.82,2.82,0,0,1,2.22-2.622,8.685,8.685,0,0,1,2.28-.378,1.812,1.812,0,0,1,1.228.639,1.5,1.5,0,0,1,.181,1.374L12.64,512.5H15a2.656,2.656,0,0,1-2.218,2.621ZM13.5,503.5A1.5,1.5,0,1,1,15,502a1.5,1.5,0,0,1-1.5,1.5Z" transform="translate(0 -496.001)" fill="#fff"/>
  </g>
</svg>
