<svg id="icon-feedback" xmlns="http://www.w3.org/2000/svg" width="23.997" height="23.997" viewBox="0 0 23.997 23.997">
  <path id="Path_244" data-name="Path 244" d="M21.689,484.338a.47.47,0,0,0-.544.119l-3.087,3.366a1.468,1.468,0,0,1-.766.448l-2.5.544a1.415,1.415,0,0,1-1.354-.447,1.731,1.731,0,0,1-.411-1.477l.441-2.407H5.5a.547.547,0,0,1,0-1.09h8.391c.018-.021.028-.046.046-.067l1.938-2.113H5.5a.548.548,0,0,1,0-1.092h11a.464.464,0,0,1,.28.107l3.244-3.538a2.864,2.864,0,0,1,.985-.7.539.539,0,0,0,.31-.452.563.563,0,0,0-.222-.511,1.878,1.878,0,0,0-1.1-.36H2a2.1,2.1,0,0,0-2,2.182v21.269a.547.547,0,0,0,.309.5.451.451,0,0,0,.19.042.479.479,0,0,0,.354-.16l4.853-5.293H20a2.1,2.1,0,0,0,2-2.182v-6.187A.549.549,0,0,0,21.689,484.338ZM11.5,487.756h-6a.547.547,0,0,1,0-1.09h6a.547.547,0,0,1,0,1.09Z" transform="translate(0 -474.667)" fill="#fff"/>
  <path id="Path_245" data-name="Path 245" d="M17.418,476.122a1.844,1.844,0,0,0-1.353.61l-6.086,6.638a.552.552,0,0,0-.136.278l-.5,2.728a.577.577,0,0,0,.136.493.478.478,0,0,0,.354.159.44.44,0,0,0,.1-.01l2.5-.544a.489.489,0,0,0,.255-.15l6.086-6.638h0a2.2,2.2,0,0,0,.561-1.476A2.008,2.008,0,0,0,17.418,476.122Zm-.793,4.363-1.293-1.411.708-.771,1.293,1.411Z" transform="translate(4.665 -473.94)" fill="#fff"/>
  <path id="Path_246" data-name="Path 246" d="M21.689,484.338a.47.47,0,0,0-.544.119l-3.087,3.366a1.468,1.468,0,0,1-.766.448l-2.5.544a1.415,1.415,0,0,1-1.354-.447,1.731,1.731,0,0,1-.411-1.477l.441-2.407H5.5a.547.547,0,0,1,0-1.09h8.391c.018-.021.028-.046.046-.067l1.938-2.113H5.5a.548.548,0,0,1,0-1.092h11a.464.464,0,0,1,.28.107l3.244-3.538a2.864,2.864,0,0,1,.985-.7.539.539,0,0,0,.31-.452.563.563,0,0,0-.222-.511,1.878,1.878,0,0,0-1.1-.36H2a2.1,2.1,0,0,0-2,2.182v21.269a.547.547,0,0,0,.309.5.451.451,0,0,0,.19.042.479.479,0,0,0,.354-.16l4.853-5.293H20a2.1,2.1,0,0,0,2-2.182v-6.187A.549.549,0,0,0,21.689,484.338ZM11.5,487.756h-6a.547.547,0,0,1,0-1.09h6a.547.547,0,0,1,0,1.09Z" transform="translate(0 -474.667)" fill="#fff"/>
  <path id="Path_247" data-name="Path 247" d="M17.418,476.122a1.844,1.844,0,0,0-1.353.61l-6.086,6.638a.552.552,0,0,0-.136.278l-.5,2.728a.577.577,0,0,0,.136.493.478.478,0,0,0,.354.159.44.44,0,0,0,.1-.01l2.5-.544a.489.489,0,0,0,.255-.15l6.086-6.638h0a2.2,2.2,0,0,0,.561-1.476A2.008,2.008,0,0,0,17.418,476.122Zm-.793,4.363-1.293-1.411.708-.771,1.293,1.411Z" transform="translate(4.665 -473.94)" fill="#fff"/>
</svg>
