<svg id="icon-chat" xmlns="http://www.w3.org/2000/svg" width="23.997" height="20.999" viewBox="0 0 23.997 20.999">
  <path id="Path_250" data-name="Path 250" d="M15.617,454.235a8.277,8.277,0,0,0-7.369-4.307A7.992,7.992,0,0,0,0,457.616,7.189,7.189,0,0,0,.786,460.9l-.771,3.614a.682.682,0,0,0,.825.776l3.9-.724a8.434,8.434,0,0,0,1.627.534C5.119,459.543,9.614,454.325,15.617,454.235Z" transform="translate(-0.001 -449.928)" fill="#fff"/>
  <path id="Path_251" data-name="Path 251" d="M20.69,464.65a7.36,7.36,0,0,0,.352-.812h-.025c1.755-4.828-1.936-9.9-7.385-10.15h0a7.715,7.715,0,1,0-.394,15.367,8.572,8.572,0,0,0,3.495-.737c4.274.793,3.942.737,4.039.737a.673.673,0,0,0,.69-.789Z" transform="translate(2.522 -448.055)" fill="#fff"/>
  <path id="Path_252" data-name="Path 252" d="M15.617,454.235a8.277,8.277,0,0,0-7.369-4.307A7.992,7.992,0,0,0,0,457.616,7.189,7.189,0,0,0,.786,460.9l-.771,3.614a.682.682,0,0,0,.825.776l3.9-.724a8.434,8.434,0,0,0,1.627.534C5.119,459.543,9.614,454.325,15.617,454.235Z" transform="translate(-0.001 -449.928)" fill="#fff"/>
  <path id="Path_253" data-name="Path 253" d="M20.69,464.65a7.36,7.36,0,0,0,.352-.812h-.025c1.755-4.828-1.936-9.9-7.385-10.15h0a7.715,7.715,0,1,0-.394,15.367,8.572,8.572,0,0,0,3.495-.737c4.274.793,3.942.737,4.039.737a.673.673,0,0,0,.69-.789Z" transform="translate(2.522 -448.055)" fill="#fff"/>
</svg>
