<svg xmlns="http://www.w3.org/2000/svg" width="23.997" height="23.997" viewBox="0 0 23.997 23.997">
  <g id="icon-setting" transform="translate(0 0)">
    <path id="Path_256" data-name="Path 256" d="M52.89,496.749l-2.61-2.115a8.076,8.076,0,0,0,0-2.521L52.89,490a.489.489,0,0,0,.117-.633l-2.377-3.984a.525.525,0,0,0-.625-.219l-3.192,1.128a9.427,9.427,0,0,0-2.262-1.258l-.588-3.244a.512.512,0,0,0-.508-.414H38.7a.512.512,0,0,0-.508.414l-.588,3.244a9.427,9.427,0,0,0-2.262,1.258l-3.193-1.128a.522.522,0,0,0-.624.219l-2.377,3.984a.487.487,0,0,0,.117.633l2.61,2.113a8.076,8.076,0,0,0,0,2.521l-2.61,2.115a.487.487,0,0,0-.117.633l2.377,3.983a.525.525,0,0,0,.624.219l3.193-1.128a9.425,9.425,0,0,0,2.262,1.258l.588,3.244a.512.512,0,0,0,.508.414h4.754a.512.512,0,0,0,.508-.414l.588-3.244a9.425,9.425,0,0,0,2.262-1.258L50,501.585a.527.527,0,0,0,.625-.219l2.377-3.983A.489.489,0,0,0,52.89,496.749Zm-11.813,1.624a5,5,0,1,1,5.167-5A5.092,5.092,0,0,1,41.078,498.373Z" transform="translate(-29.079 -481.376)" fill="#fff"/>
    <path id="Path_257" data-name="Path 257" d="M52.89,496.749l-2.61-2.115a8.076,8.076,0,0,0,0-2.521L52.89,490a.489.489,0,0,0,.117-.633l-2.377-3.984a.525.525,0,0,0-.625-.219l-3.192,1.128a9.427,9.427,0,0,0-2.262-1.258l-.588-3.244a.512.512,0,0,0-.508-.414H38.7a.512.512,0,0,0-.508.414l-.588,3.244a9.427,9.427,0,0,0-2.262,1.258l-3.193-1.128a.522.522,0,0,0-.624.219l-2.377,3.984a.487.487,0,0,0,.117.633l2.61,2.113a8.076,8.076,0,0,0,0,2.521l-2.61,2.115a.487.487,0,0,0-.117.633l2.377,3.983a.525.525,0,0,0,.624.219l3.193-1.128a9.425,9.425,0,0,0,2.262,1.258l.588,3.244a.512.512,0,0,0,.508.414h4.754a.512.512,0,0,0,.508-.414l.588-3.244a9.425,9.425,0,0,0,2.262-1.258L50,501.585a.527.527,0,0,0,.625-.219l2.377-3.983A.489.489,0,0,0,52.89,496.749Zm-11.813,1.624a5,5,0,1,1,5.167-5A5.092,5.092,0,0,1,41.078,498.373Z" transform="translate(-29.079 -481.376)" fill="#fff"/>
  </g>
</svg>
