<svg xmlns="http://www.w3.org/2000/svg" width="20.997" height="24.002" viewBox="0 0 20.997 24.002">
  <g id="icon-privacy" transform="translate(0 -0.03)">
    <path id="Path_248" data-name="Path 248" d="M84.611,499.035l-9.915-3a.68.68,0,0,0-.387,0l-9.915,3a.511.511,0,0,0-.39.471v6c0,7.766,1.344,10.6,10.236,14.447a.665.665,0,0,0,.525,0C83.658,516.11,85,513.272,85,505.506v-6A.511.511,0,0,0,84.611,499.035Zm-7.2,12.4a.451.451,0,0,1-.138.4.629.629,0,0,1-.441.172H72.169a.628.628,0,0,1-.439-.172.451.451,0,0,1-.138-.4l.676-4.124A2.845,2.845,0,0,1,71,505.006a3.541,3.541,0,0,1,7,0,2.843,2.843,0,0,1-1.266,2.307Z" transform="translate(-64.004 -496.006)" fill="#fff"/>
    <path id="Path_249" data-name="Path 249" d="M84.611,499.035l-9.915-3a.68.68,0,0,0-.387,0l-9.915,3a.511.511,0,0,0-.39.471v6c0,7.766,1.344,10.6,10.236,14.447a.665.665,0,0,0,.525,0C83.658,516.11,85,513.272,85,505.506v-6A.511.511,0,0,0,84.611,499.035Zm-7.2,12.4a.451.451,0,0,1-.138.4.629.629,0,0,1-.441.172H72.169a.628.628,0,0,1-.439-.172.451.451,0,0,1-.138-.4l.676-4.124A2.845,2.845,0,0,1,71,505.006a3.541,3.541,0,0,1,7,0,2.843,2.843,0,0,1-1.266,2.307Z" transform="translate(-64.004 -496.006)" fill="#fff"/>
  </g>
</svg>
